<?xml version="1.0" encoding="UTF-8" standalone="no"?>
<svg
   xmlns:dc="http://purl.org/dc/elements/1.1/"
   xmlns:cc="http://creativecommons.org/ns#"
   xmlns:rdf="http://www.w3.org/1999/02/22-rdf-syntax-ns#"
   xmlns:svg="http://www.w3.org/2000/svg"
   xmlns="http://www.w3.org/2000/svg"
   viewBox="0 0 260.61469 65.610397"
   height="65.610397"
   width="260.61469"
   xml:space="preserve"
   id="svg2"
   version="1.1"><metadata
     id="metadata8"><rdf:RDF><cc:Work
         rdf:about=""><dc:format>image/svg+xml</dc:format><dc:type
           rdf:resource="http://purl.org/dc/dcmitype/StillImage" /></cc:Work></rdf:RDF></metadata><defs
     id="defs6"><clipPath
       id="clipPath18"
       clipPathUnits="userSpaceOnUse"><path
         id="path16"
         d="M 0,49.208 H 195.461 V 0 H 0 Z" /></clipPath></defs><g
     transform="matrix(1.3333333,0,0,-1.3333333,0,65.6104)"
     id="g10"><g
       id="g12"><g
         clip-path="url(#clipPath18)"
         id="g14"><g
           transform="translate(57.3288,17.8784)"
           id="g20"><path
             id="path22"
             style="fill:#ffffff;fill-opacity:1;fill-rule:evenodd;stroke:none"
             d="m 0,0 v 0 h 9.625 c 1.657,0 2.116,0.388 2.116,1.763 v 9.625 c 0,1.375 -0.459,1.762 -2.116,1.762 H 0 Z m 33.852,11.282 v 0 L 30.75,4.407 h 6.205 z M 28.458,-0.528 26.307,-5.183 H 19.504 L 31.385,18.404 H 36.32 L 48.167,-5.183 h -6.804 l -2.152,4.655 z m 46.677,18.932 h 5.887 V -5.183 H 75.135 V 10.33 L 66.302,0.177 57.471,10.33 V -5.183 h -5.888 v 23.587 h 5.888 L 66.302,7.968 Z m 23.607,-7.122 v 0 L 95.64,4.407 h 6.205 z m -5.394,-11.81 -2.15,-4.655 h -6.804 l 11.881,23.587 h 4.935 l 11.847,-23.587 h -6.805 l -2.15,4.655 z m 37.733,18.862 c 2.61,0 4.196,-0.494 5.394,-1.693 1.199,-1.198 1.657,-2.715 1.657,-5.394 V 9.169 h -5.887 v 2.219 c 0,1.375 -0.458,1.762 -2.115,1.762 h -7.493 c -1.657,0 -2.116,-0.387 -2.116,-1.762 V 1.763 C 120.521,0.388 120.98,0 122.637,0 h 7.493 c 1.657,0 2.115,0.388 2.115,1.763 v 2.22 h 5.887 V 1.904 c 0,-2.68 -0.458,-4.195 -1.657,-5.395 -1.198,-1.198 -2.784,-1.692 -5.394,-1.692 h -9.397 c -2.608,0 -4.194,0.494 -5.394,1.692 -1.198,1.2 -1.657,2.715 -1.657,5.395 v 9.343 c 0,2.679 0.459,4.196 1.657,5.394 1.2,1.199 2.786,1.693 5.394,1.693 z m -120.504,0 c 2.609,0 4.195,-0.494 5.394,-1.693 1.199,-1.198 1.657,-2.714 1.657,-5.394 V 1.904 c 0,-2.68 -0.458,-4.195 -1.657,-5.395 -1.199,-1.198 -2.785,-1.692 -5.394,-1.692 H -5.888 v 23.517 z" /></g><g
           transform="translate(28.1849,48.6238)"
           id="g24"><path
             id="path26"
             style="fill:#ed1c24;fill-opacity:1;fill-rule:evenodd;stroke:none"
             d="m 0,0 c 4.478,0.906 7.201,0.487 9.258,-1.452 2.058,-1.94 2.844,-4.761 2.844,-10.028 v -18.365 c 0,-5.267 -0.786,-8.407 -2.844,-11.18 -2.412,-3.252 -7.142,-4.884 -11.569,-6.052 l -6.082,-1.547 v 10.187 l 6.759,2.068 c 2.886,0.94 3.631,1.498 3.631,4.201 v 18.919 c 0,2.704 -0.847,3.604 -3.631,2.731 l -6.759,-2.068 v 10.187 z" /></g><g
           transform="translate(0,2.9829)"
           id="g28"><path
             id="path30"
             style="fill:#ed1c24;fill-opacity:1;fill-rule:evenodd;stroke:none"
             d="M 0,0 V 46.225 L 10.074,34.873 V 9.023 Z" /></g><g
           transform="translate(19.7921,46.2215)"
           id="g32"><path
             id="path34"
             style="fill:#941c1e;fill-opacity:1;fill-rule:evenodd;stroke:none"
             d="M 0,0 -19.792,2.986 -9.718,-8.366 0,-10.185 Z m 0,-46.221 -19.792,2.982 10.074,9.024 L 0,-36.034 Z" /></g></g></g></g></svg>